<?xml version="1.0" standalone="no"?><!DOCTYPE svg PUBLIC "-//W3C//DTD SVG 1.1//EN" "http://www.w3.org/Graphics/SVG/1.1/DTD/svg11.dtd"><svg t="1723043054437" class="icon" viewBox="0 0 1024 1024" version="1.1" xmlns="http://www.w3.org/2000/svg" p-id="20559" xmlns:xlink="http://www.w3.org/1999/xlink" width="48" height="48"><path d="M428.58707 119.88171219c-3.16071188-5.43108188-6.43271531-10.77312937-6.52174969-17.40617156-0.1112925-9.94956375 5.25301313-16.67164031 14.49030375-17.80682438 35.90301094-4.62977438 71.67247125-9.326325 108.1096875-9.12599812 130.19015063 0.77904844 244.22060719 43.15929281 333.87797156 138.002895 85.42824375 90.3696375 121.35351375 201.26164125 110.44683282 325.15262718-12.30896812 139.87261125-69.31306688 259.44544219-175.13012531 352.81998188-75.54545531 66.66430125-166.73865937 97.24752375-266.679465 100.16339156-77.05903594 2.22585281-152.93836969-6.98917875-225.54569907-34.92363562-84.93855562-32.78681719-149.95572656-90.03576-203.13135844-162.88793344C44.89450531 693.10567344 23.01436813 580.43298687 36.94820938 458.47849344 53.88695188 310.2589325 126.47202219 194.78167063 248.24844781 112.02445062 338.92970562 50.43509469 441.22991563 23.68034 551.60997313 34.2531425c6.07657875 0.57872156 16.89422531-1.22421937 16.64938218 6.36594-0.28936125 8.23565625-10.86216375 4.74106688-16.82745 4.96365187-73.07475844 2.73779906-144.16850812 15.58097156-211.72315125 43.87156594-31.16194406 13.08801656-23.99469656 5.29753031-23.97243843 38.44048406 0 10.30570031 1.73616562 20.58914156 2.67102375 30.87258282 0.95711719 13.77803063 1.51357969 27.60057938 5.1194625 41.02247343-0.31161938 11.57443594 2.49295594 22.74821906 4.00653562 34.07781188 0.71227313 5.31978938 2.22585281 6.96692063 7.74596906 4.763325 41.31183469-16.51583062 84.04821469-28.20155906 127.29654094-38.35144969l51.19462219-8.32469062c-27.75638906-27.22218375-54.53340188-51.90689531-85.18339969-72.073125z m23.99469656 115.90017375c-18.67490813 0.75679031-35.92527 7.12273031-53.24240719 13.35511875l-4.45170562 1.06840969-2.47069781 1.17970218c-17.80682531 4.45170656-34.790085 11.86379719-51.99592875 18.31877157-3.38329688 1.26873656-5.85399375 3.16071188-4.45170657 7.41209062 2.07004312 6.67755937 1.62487312 13.91158219 5.58689157 20.03267813a11.81928 11.81928 0 0 0-0.222585 3.27200437c9.25954875 41.80152187 22.08046312 82.55689313 35.3465475 123.20097188 1.71390656 5.20849594 4.45170656 4.80784312 8.36920781 3.16071093a843.28672219 843.28672219 0 0 1 125.20423969-42.02410687c35.3465475-7.03369594 70.75987125-13.57770375 106.72965843-16.58260594 5.18623781-0.44517094 8.36920781-1.31325375 5.3420475-7.968555-8.25791531-18.05166937-15.98162531-36.32592375-26.71023843-53.17563094-14.71288969-29.64836344-34.47846563-55.89117281-55.00083094-81.64429406a8.65856906 8.65856906 0 0 0-8.5250175-3.7394325c-25.33020844 2.82683344-50.66041781 5.43108188-75.3673875 12.1531575-1.71390656-0.15580969-3.56136469-0.26710219-4.14008719 1.98100969z m450.98010656 286.22245594l5.83173469 81.48848343c-1.51357969 7.59015938-0.28936125 13.35511875 7.90177875 17.00551782 4.71880875 2.09230219 11.12926594 5.27527219 10.17214875 11.73024656s-7.05595406 9.25954875-12.8431725 10.99571437c-3.60588188 1.06840969-5.5646325 2.22585281-5.54237437 6.52174969 0 21.39044906-1.44680437 42.69186375-3.33877969 63.99327844-0.222585 2.60424844-1.89197531 6.85562812 1.38002906 7.87951969 4.69654969 1.46906344 4.58525719-3.65039906 5.74270125-6.34368188 12.82091437-29.60384719 21.45722438-60.5877225 29.11415906-91.81644187 25.55279438-104.41477125 13.46641125-204.64493813-34.25587968-300.71275969-16.73841563-33.67715813-40.33245937-59.87544937-78.3277725-69.89178938a115.98920719 115.98920719 0 0 1-13.35511875-5.3420475L785.32455313 236.80577844l44.51706374 65.8184775a781.98672656 781.98672656 0 0 1 45.96386719 102.21117656 13.84480687 13.84480687 0 0 0 6.87788625 8.21339813c7.85726156 3.93976031 15.58097156 7.94629594 23.50500938 11.9305725 4.2068625 2.84909156 8.59179281 5.47559906 12.57607031 8.59179281 4.60751625 3.60588188 13.55544563 5.63140875 11.129265 12.90994875-2.93812594 8.63631-11.28507562 2.62650656-17.29487813 2.87135062l-25.08536531-9.23729062c7.52338406 28.37962781 11.32959281 55.22341687 16.04840156 81.88913719z m-263.87489062 44.69513062c15.58097156-0.1112925 31.00613438-0.33387844 46.52033062-0.28936031 5.31978938 0 7.65693469-1.55809687 5.85399375-7.18950563-4.91913563-15.42516188-8.16888094-31.38452906-14.62385531-46.32000375-9.57116812-36.70431844-23.83888688-71.78376375-37.10497219-107.21934656-1.75842375-4.69654969-4.60751625-5.87625188-9.25954875-5.58689156-40.91118094 2.69328188-81.48848344 7.3898325-121.0641525 18.71942531-39.59792719 9.03696375-77.30388 23.46049219-114.34207593 39.90954656-5.47559906 2.42617969-5.63140875 5.1194625-3.93976032 10.238925 9.74923688 29.35900313 19.56524906 58.67348906 31.16194407 87.36473532 6.98917875 17.38391344 14.73514781 34.45620656 22.25853187 51.66205218 1.46906344 3.405555 2.53747219 7.23402281 7.81274438 4.78558407 30.56096344-14.11190906 62.68002469-23.79436969 95.02167093-32.76455813 30.33837844-5.3420475 60.83256656-10.52828531 91.70514938-13.3106025zM230.55291594 739.84858906v0.1112925A820.13785031 820.13785031 0 0 1 176.77630344 635.23349094c-2.960385-7.87951969-5.80947656-15.8035575-8.90341219-23.63856-5.40882281-13.82254781-5.20849594-13.35511875-18.09618656-5.20849594-11.28507562 7.18950562-19.63202438 19.03104469-33.89974313 21.50174063-12.954465-3.31652156-18.65264906-11.28507562-16.53808875-22.88176969 1.11292688-6.18787219 5.45334-10.32795844 8.90341219-15.02450906a266.87979188 266.87979188 0 0 0 36.17011406-25.41924282c5.74270125-2.3816625 4.45170656-6.67755937 3.09393563-11.12926593a962.32534875 962.32534875 0 0 1-32.78681625-135.77704219c0.31161938-4.94139375-0.93485812-6.16561313-5.25301406-2.71554-7.23402281 5.76495938-14.73514781 11.12926594-22.12498032 16.76067375-2.960385 2.22585281-6.03206156 5.1194625-9.8827875 4.27363781-9.08148094-1.98100969-8.90341219 3.405555-9.39310031 9.88278844a567.32544938 567.32544938 0 0 0 11.64121219 163.28858625c32.34164625 148.06375125 117.56956313 253.74725813 256.90797 313.84529343 36.39269906 15.71452312 23.03758031 16.64938125 49.19135437-13.48866937 4.65203344-2.51521406 4.45170656-5.1194625 0.42291188-8.23565719-5.18623781-4.14008719-10.32795844-8.36920781-15.22483594-12.8431725Q344.60563063 864.18474594 318.34056406 839.76713656c-16.96100063-19.4316975-36.147855-36.92690344-51.35043281-57.87218156-5.3420475-7.32305719-8.90341219-6.27690562-14.51256188-0.75679031-10.30570031 10.12763156-21.23463938 19.52073187-36.28140656 21.96917062-3.2942625 0-6.67755937 0-9.92730469 0.1112925-10.10537344 0.15580969-11.12926594-1.58035594-6.96692062-10.7953875 0.75679031-1.66939031 1.49132156-3.33877969 2.22585281-5.03042812 9.74923688-10.95119719 18.875235-22.6146675 30.53870531-31.58485594 6.67755937-5.09720344 6.143355-8.90341219 0.44517094-13.77803063z m502.57538156 122.8893525c2.73779906-19.74331781-0.55646344-39.46437656-0.57872156-59.18543531 0-4.25137969-2.22585281-5.72044219-6.23238938-5.60914969a207.56080594 207.56080594 0 0 0-38.01757125 3.85072594c-36.65980125 2.960385-71.89505625 12.15315844-106.50707343 24.26179875-5.230755 1.8252-6.2546475 4.11782813-3.11619469 8.90341313 17.22810375 25.75312125 34.65653344 51.35043188 55.49051906 74.43252843 5.3420475 8.90341219 13.13253375 15.91485 19.56524906 23.97243844 2.82683344 3.53910656 5.67592594 3.58362375 9.63794438 2.02552688 21.67980937-8.54727562 42.95896594-17.80682531 63.70391719-28.51317938a8.76986156 8.76986156 0 0 0 5.49785718-8.61405094c0.02225813-11.81928 0.33387844-23.63856 0.55646344-35.45784093z m72.96346594-61.70064937c-12.33122625-1.0238925-24.68471156-2.07004312-37.03819594-3.02716031-4.45170656-0.33387844-7.99081312 0.20032688-8.03533031 6.09883781 0 12.75413813-0.42291187 25.50827719-0.69001406 38.26241531v45.98612625C795.00701469 866.45511594 827.61576313 842.23783344 854.50406937 808.85003656a316.89471187 316.89471187 0 0 0-48.41230593-7.74596906z m85.18339969-130.59080438c-0.26710219-9.21503156-0.64549781-18.40780594-0.73453125-27.6228375 0-4.14008719-1.15744406-7.07821312-5.43108188-8.45824218-11.55217781-3.71717437-22.59240937-9.14825625-34.87911844-10.35021657-35.1239625-12.04186594-71.71698844-16.58260594-108.26549718-21.30141468-6.23238844-0.82356562-5.230755 3.33877969-4.318155 7.1672475a841.83991781 841.83991781 0 0 1 21.67980937 151.04639437c0.31161938 5.98754531 2.53747219 8.48050031 8.14662281 9.45987563 18.89749313 3.27200437 37.83950344 6.81111094 56.62570407 10.23892406 12.66510469 3.93976031 25.30795031 7.85726156 37.95079593 11.84153906 2.22585281 0.69001406 4.45170656 1.26873656 6.07657875-0.82356562 8.19114-10.75087031 18.65264906-20.03267812 20.03267813-34.83460219 2.82683344-28.66898812 2.78231625-57.47152781 3.11619469-86.29632563zM597.12867031 919.23009406c-16.9387425-24.15050625-33.92200219-48.27875437-50.704935-72.518295-2.42617969-3.49458937-4.318155-5.20849594-8.90341218-3.13845375a486.92763375 486.92763375 0 0 0-95.55587532 57.56056313c-4.11782813 3.18297-3.78395063 5.76495938 0 8.61405093 7.67919375 5.65366687 14.46804563 12.509295 23.05983844 16.89422532 22.54789219 20.56688344 47.21034563 34.63427531 79.55199094 28.40188687 10.43925094-2.00326781 21.36819-1.35777 31.98550968-2.67102375 13.64448-1.66939031 27.53380312-2.22585281 42.02410782-6.67755937zM840.70377969 231.95341812c0.42291187 1.11292688 1.44680437 1.98100969 2.22585375 0.93485907s-0.53420438-1.44680437-1.51358063-1.53583875c-12.88768969-18.875235-30.5832225-32.8535925-48.83521781-45.78579938-98.73884531-69.82501312-209.67536625-96.26814844-329.15916281-91.59385687-0.73453125 0-1.42454625 1.0238925-2.78231719 2.07004312 9.41535844 4.85236031 15.1135425 13.84480687 25.10762344 16.64938125-0.84582375 2.22585281 1.04615062 3.33877969 2.22585375 4.45170656a668.646285 668.646285 0 0 1 60.34287844 63.19197094c4.96365281 5.78721844 10.03859813 7.1672475 17.20584468 6.87788625a610.01731312 610.01731312 0 0 1 95.1552225 3.78395063c18.36328875 2.22585281 36.68205938 4.62977438 57.09313313 7.23402281a96.5129925 96.5129925 0 0 1-7.055955-7.99081312c-2.98264313-4.318155-9.59342719-8.65856906-5.09720344-14.20094344 4.89687656-6.00980344 11.44088531-2.22585281 16.87196719 1.20196125a181.206705 181.206705 0 0 1 28.55769562 20.85624375 24.12824812 24.12824812 0 0 0 17.80682532 7.36757344zM301.91376781 201.48148906c0.53420438-10.46151-1.71390656-20.63365875-2.960385-30.9171-1.38002906-19.40943938-2.73779906-38.84113781-4.11782812-58.45090406-5.27527219 0.31161938-8.54727562 3.51684844-12.17541656 5.80947656C238.744055 145.54579906 201.32746344 180.80331312 168.91904188 220.91318656c-41.42312719 51.19462219-35.61365062 30.694515-31.78518282 96.98042157 0.51194625 8.90341219 1.84745813 17.62875656 2.78231625 26.44313531 0.9126 8.413725 4.2068625 2.91586781 6.67755938 1.06840969 15.00225-11.12926594 29.24771062-23.63856 45.05126812-33.61038282 34.54524094-21.79110188 69.802755-42.44701969 107.1970875-59.16317625 4.25137969-1.89197531 11.97508969-2.87135063 9.14825625-9.94956375-5.38656469-13.39963594-1.44680437-27.88993969-6.07657875-41.20054125zM212.30091969 616.46954937a468.65337937 468.65337937 0 0 0 50.54912531 102.85667344c2.22585281 3.36103781 4.22912063 7.30079813 9.32632406 3.02716032 25.46376-21.32367281 53.57628562-38.95243031 80.77621125-57.87218157l55.3569675-31.65163125c7.47886688-1.46906344 9.83827125-4.76332594 5.52011625-12.10864125a94.95489563 94.95489563 0 0 1-7.25628187-14.51256281q-22.12498031-60.699015-43.11477563-121.82094281c-2.78231625-8.10210563-5.16397969-9.10373906-12.86543062-5.14172063a960.83402719 960.83402719 0 0 0-146.68372219 91.66063219c-3.73943344 2.22585281-8.3024325 4.18460438-5.83173562 9.97182281 5.03042812 11.75250469 7.59015938 24.48438469 14.22320156 35.59139157z m-50.37105656-144.68045437c2.60424844 18.20747906 8.90341219 35.43558187 14.26771875 52.8640125 5.5646325 17.80682531 5.80947656 17.80682531 20.76721031 5.09720344 47.32163812-31.56259781 95.711685-61.34451281 147.01759969-86.00696532 4.60751625-2.22585281 6.67755937-4.14008719 5.14172062-9.94956374-9.94956375-37.060455-19.45395656-74.25446062-29.11415906-111.2926575-1.69164844-10.77312937-3.67265812-21.52399969-4.96365281-32.36390438-0.82356562-6.96692063-3.00490219-9.12599813-9.79375313-5.54237437-14.6683725 7.72371-29.82643219 14.57933812-44.36125312 22.57015031C222.18370813 328.53318687 184.58904781 352.01593719 150.95640688 381.26364781c-3.51684844 3.04941844-7.501125 5.69818406-6.32142282 11.79702094 5.16397969 26.42087719 9.68246156 52.975305 17.29487907 78.79520156z m273.00088874 397.31478656c27.44476969-18.60813187 54.46662656-37.83950344 84.31531688-52.68594469 3.9842775-1.98100969 4.22912063-3.93976031 1.84745813-7.6124175-18.9865275-29.42577844-37.83950344-58.96284938-56.62570407-88.45540406-8.90341219-16.9387425-18.22973719-33.74393344-26.7102375-50.86074375-2.93812594-5.80947656-5.92076906-4.69654969-10.50602718-2.64876562a557.50943719 557.50943719 0 0 0-131.32533563 81.04331343c-5.52011625 4.60751625-6.29916469 7.36757438-1.58035594 13.15479188A962.59245094 962.59245094 0 0 0 395.80025281 868.747745c22.74821906 20.43333188 14.82418219 19.69880063 39.13049906 0.35613656z m382.00091625-535.54026656a454.60824656 454.60824656 0 0 0-69.73597874-102.05536688 12.06412406 12.06412406 0 0 0-7.34531532-4.58525812c-17.80682531-2.40392156-35.61365062-6.41045719-53.7766125-6.67755938-33.38779687-4.45170656-66.77559469-4.83010125-100.34145937-4.45170562-6.05432062 0-8.65856906 1.42454625-4.18460438 7.45660781 15.1135425 20.43333188 28.31285156 42.15765844 41.93507344 63.59262375 12.08638219 24.48438469 25.28569219 48.45682312 35.03492906 74.03187563 2.07004312 5.43108188 6.21013031 5.3420475 10.72861219 5.69818406 15.06902625 1.20196031 30.24934406 2.00326781 45.20707687 4.14008719 24.35083313 3.47233125 48.59037375 7.87951969 72.8744325 11.88605625l61.12192688 17.3839125c-10.01633906-23.83888688-18.49683938-46.18645312-31.51808063-66.41945719z m68.31143344 222.47402156c-0.15580969-2.22585281-0.26710219-4.45170656-0.46742906-6.67755937-2.71554094-28.15704188-9.30406594-55.64632875-14.779665-83.24690813-4.45170656-22.503375-13.7557725-38.19564-38.52951844-42.58057031-19.00878563-3.36103781-37.060455-11.79702187-56.82603094-12.17541656-29.87094937-8.7476025-60.63223969-10.63957781-91.48256343-11.77476375-4.83010125-0.17806781-10.19440781-1.22421937-6.67756032 7.23402281 11.35185094 26.7102375 19.47621469 54.77824594 29.11416 82.20075656 5.16397969 24.48438469 14.22320156 47.967135 18.58587375 72.67410563 0.86808281 4.94139375 4.45170656 6.81111094 9.6602025 7.23402281 8.43598312 0.69001406 16.80519094 2.07004312 25.19665688 3.36103781 35.3465475 5.43108188 69.95856469 14.11190906 104.41477125 23.50500938 7.85726156 4.89687656 16.73841563 7.03369594 26.30958469 10.41699281-1.17970219-17.33939625-1.62487312-33.85522594-4.51848188-50.17072969z m-204.15525093 214.66127719c12.88768969-0.71227313 25.7976375-2.22585281 38.66306906-1.91423344 9.25954875 0.222585 11.39636813-3.02716031 10.43925187-11.50766062-2.89360875-25.61956969-5.96528625-51.19462219-10.3502175-76.61386594-4.27363781-24.77374594-9.771495-49.16909625-15.58097156-73.56444656-0.86808281-3.76169156-1.42454625-7.30079813-6.67756031-7.03369594-12.08638219 0.62323875-24.328575-1.33551188-36.30366469 1.78068281a65.95202906 65.95202906 0 0 0-6.67755937 0 609.03793781 609.03793781 0 0 0-92.57323219 14.779665 584.95420687 584.95420687 0 0 0-88.67798907 29.4480375c-6.43271531 2.69328188-7.96855406 5.3420475-4.45170656 12.19767469 24.26179969 47.8558425 54.51114375 92.03902781 83.49175125 137.00126156 2.40392156 3.73943344 4.62977438 4.62977438 8.90341313 3.00490125 38.88565406-14.44578656 79.04004563-22.34756531 119.79541593-27.57832031zM106.43934406 313.90933156c-18.09618563 33.54360656-28.5354375 67.04269687-35.61364968 101.69923032-0.31161938 1.55809687-0.77904844 3.93976031 1.84745812 4.45170562s3.65039906-1.98100969 4.83010125-3.71717437a443.99092688 443.99092688 0 0 1 29.69288063-38.50725938 9.30406594 9.30406594 0 0 0 2.98264312-6.83336906c-1.2464775-18.2965125-2.44843875-36.52624969-3.73943344-57.09313313z m352.41932906 637.55111625c-9.39310031-6.27690562-18.83071781-12.509295-28.20155999-18.83071781-15.26935219-10.30570031-14.84644031-10.03859813-25.90893 4.45170656-5.5646325 7.30079813-2.82683344 8.63631 4.27363781 10.08311438a241.57184156 241.57184156 0 0 0 49.83685219 4.29589687z" fill="#030504" p-id="20560"></path><path d="M428.58707 119.88171219c30.64999781 20.16622969 57.42701156 44.85094125 85.22791688 72.073125L462.5758475 200.27952781c-9.01470562-16.22646938-22.99306312-22.25853187-42.89218969-19.07556094-32.20809469 5.14172062-62.94712688 17.94037594-96.02330531 18.63039094-3.60588188-13.35511875-4.16234531-27.24444281-5.11946156-41.02247344 34.96815281-17.87360062 71.29407656-31.76292469 110.04617906-38.93017218zM681.08785063 770.69891375c-40.75537125 5.230755-80.90976188 13.13253375-119.55057188 27.48928594-4.45170656 1.62487312-6.67755937 0.73453125-8.90341312-3.00490125-28.93609125-44.96223375-59.2299525-89.14541813-83.49175125-137.00126156-3.47233125-6.85562812-1.9364925-9.50439281 4.45170656-12.19767469a584.95420687 584.95420687 0 0 1 88.67798906-29.4480375 609.03793781 609.03793781 0 0 1 92.528715-14.69063063 65.95202906 65.95202906 0 0 1 6.67755938 0 94.66553437 94.66553437 0 0 0 19.74331781 27.8454225c11.30733375 10.61731969 13.35511875 23.37145781 10.61731969 37.50562594-1.9364925 10.12763156-4.58525719 20.03267812-7.12273032 30.11579344a177.111135 177.111135 0 0 0-3.62814093 73.38637781z" fill="#0379C0" p-id="20561"></path><path d="M510.18684594 384.53565125a843.28672219 843.28672219 0 0 0-125.20423875 42.02410781c-3.85072594 1.64713125-6.67755937 2.047785-8.36920782-3.16071187-13.35511875-40.64407875-26.08699875-81.39944906-35.34654843-123.20097094a11.81928 11.81928 0 0 1 0.22258593-3.27200437c18.0739275-14.62385531 37.060455-27.82316438 58.20605907-37.66143563l44.51706281-16.58260594c1.0238925 6.67755937 7.10047125 6.67755937 11.50766156 8.59179375 32.23035375 13.93384031 60.76579125 32.6310075 83.24690719 60.20932688 4.14008719 5.05268625 6.23238844 14.40127031 16.11517687 12.97672406-3.45007219 1.95875062-6.78885187 4.2068625-10.39473468 5.87625281-23.14887281 10.70635406-35.83623563 27.95671594-34.50072375 54.19952344z" fill="#66B1DE" p-id="20562"></path><path d="M863.518775 595.88040781c-34.45620656-9.39310031-69.0014475-18.0739275-104.41477125-23.50500937-8.39146594-1.29099469-16.76067375-2.67102375-25.19665781-3.36103781-5.1194625-0.42291187-8.79211969-2.22585281-9.6602025-7.23402282-4.45170656-24.70696969-13.35511875-48.18972094-18.58587375-72.67410562 2.58198938 0 5.25301313 0.1112925 7.32305625-1.84745813 23.97243844-22.503375 45.51869719-46.96550156 61.65613219-75.81255843 19.76557594 0.37839469 37.83950344 8.90341219 56.82603093 12.1754175 24.77374594 4.45170656 34.07781188 20.03267812 38.52951844 42.58057031 5.47559906 27.66735469 12.06412406 55.08986531 14.779665 83.24690719 0.20032688 2.22585281 0.31161938 4.45170656 0.46742906 6.67756031z" fill="#28A641" p-id="20563"></path><path d="M686.07376156 220.35672312c18.18522 0.15580969 35.88075281 4.16234531 53.7766125 6.67756032a12.06412406 12.06412406 0 0 1 7.34531531 4.58525718 454.60824656 454.60824656 0 0 1 69.73597875 102.05536688c-5.76495938-0.77904844-7.63467656 3.36103781-9.25954875 7.54564219-4.45170656 11.12926594-9.08148094 22.41434156-12.66510468 33.89974312-1.42454625 4.45170656-3.09393562 7.1672475-7.67919282 7.81274438-24.28405781-4.00653562-48.52359844-8.413725-72.8744325-11.88605532-14.95773281-2.22585281-30.13805156-2.93812594-45.20707687-4.14008718-4.45170656-0.35613656-8.65856906-0.26710219-10.72861219-5.69818407-9.74923688-25.5750525-22.94854594-49.54749094-35.03492906-74.03187562 2.62650656-3.56136469 5.47559906-6.96692063 7.81274437-10.684095 14.26771875-22.70370188 29.38126125-44.38351125 54.77824594-56.13601688z" fill="#5FB93C" p-id="20564"></path><path d="M434.93075187 869.10388156c-24.30631594 19.34266406-16.38227906 20.03267812-39.04146468-0.35613656a962.59245094 962.59245094 0 0 1-101.61019594-107.70903375c-4.71880875-5.78721844-3.93976031-8.54727562 1.58035594-13.15479188a557.50943719 557.50943719 0 0 1 131.32533562-81.04331343c4.58525719-2.047785 7.56790031-3.16071188 10.50602625 2.64876562 8.59179281 17.11681031 17.80682531 33.92200219 26.71023844 50.86074375-3.38329688 11.57443594-5.52011625 23.72759437-10.41699281 34.63427531-16.29324469 36.50399156-19.67654156 74.92221656-19.05330282 114.11949094z" fill="#28A641" p-id="20565"></path><path d="M510.00877813 418.81379c39.57566906-11.32959281 80.13071344-16.0261425 121.0641525-18.71942531 4.65203344-0.28936125 7.501125 0.89034094 9.25954874 5.58689156 13.35511875 35.43558187 27.53380312 70.51502719 37.10497219 107.21934656l-56.51441156 32.18583657c-14.62385531-7.47886688-29.80417406-12.66510469-46.58710594-11.12926594-5.14172062-0.20032688-10.3502175 0-15.44742093-0.64549781-11.12926594-1.35777-22.97080406-0.86808281-32.7423-7.63467657-23.50500938-16.38227906-33.0761775-51.35043188-21.27915563-78.92875218a58.00573312 58.00573312 0 0 0 5.14172063-27.93445688z" fill="#5FB93C" p-id="20566"></path><path d="M510.00877813 418.81379a58.00573312 58.00573312 0 0 1-5.14172063 27.93445687c-11.79702187 27.57832031-2.33714625 62.54647313 21.27915563 78.90649407 9.771495 6.67755937 21.54625875 6.27690562 32.74229999 7.63467656 5.09720344 0.60098063 10.30570031 0.44517094 15.46967907 0.64549688a171.68005313 171.68005313 0 0 0-26.55442782 46.07516062c-32.34164625 8.90341219-64.54974094 18.65264906-95.02167093 32.76455813-5.27527219 2.44843875-6.34368188-1.38002906-7.81274438-4.78558407-7.41209063-17.20584469-15.15805969-34.27813875-22.25853093-51.66205218-11.52991969-28.69124719-21.34593187-58.00573312-31.16194407-87.36473532-1.69164844-5.1194625-1.53583875-7.81274437 3.93975938-10.238925 37.21626469-16.44905437 74.92221656-30.87258281 114.52014468-39.90954656zM203.90945375 570.92859406a960.83402719 960.83402719 0 0 1 146.68372219-91.66063218c7.70145187-3.96201844 10.08311437-2.960385 12.86543062 5.14172062q20.90076094 61.14418594 43.11477563 121.82094188a94.95489563 94.95489563 0 0 0 7.25628187 14.51256281c4.318155 7.34531531 1.95875062 10.63957781-5.52011625 12.08638312-28.24607625-9.52665187-57.36023531-15.84807469-86.49665343-21.79110281-16.09291781-3.2942625-31.89647531-9.08148094-48.79070063-7.43434969-12.77639719-4.16234531-23.79436969 4.05105281-35.8139775 5.14172063a8.68082719 8.68082719 0 0 0-2.6042475-8.07984657c-10.75087031-9.37084219-18.58587375-21.74658563-30.694515-29.73739781zM320.12124594 322.47886625c9.6602025 37.12723031 19.16459531 74.32123687 29.11415906 111.29265656 1.55809687 5.80947656-0.53420438 7.72371-5.14172062 9.94956375-51.32817375 24.6624525-99.6959625 54.4443675-146.90630719 86.00696531a23.48275031 23.48275031 0 0 0-2.22585375-12.8431725c-9.14825625-22.52563406-13.35511875-46.20871125-15.1135425-70.33695937a42.4025025 42.4025025 0 0 1 28.33511062-15.31386938c18.76394156-2.22585281 33.38779687-11.79702187 46.74291563-24.48438468 26.02022344-24.59567719 43.38187781-56.09149969 65.19523875-84.27079969z" fill="#66B1DE" p-id="20567"></path><path d="M320.12124594 322.47886625c-21.70206844 28.17930094-39.06372281 59.6751225-65.28427219 84.40435125-13.35511875 12.64284562-28.06800844 22.25853187-46.74291656 24.48438469a42.4025025 42.4025025 0 0 0-28.33511063 15.31386937c-9.45987563 5.89851094-11.12926594 17.27262-17.62875656 25.21891594-7.6124175-25.84215469-12.13089938-52.37432438-17.20584469-78.79520156-1.17970219-6.09883781 2.80457531-8.7476025 6.32142281-11.79702188 33.54360656-29.24771062 71.02697344-52.73046094 109.84585313-74.12090906 14.53482094-7.99081312 29.69288062-14.84644031 44.36125312-22.57015125 6.78885187-3.58362375 8.90341219-1.42454625 9.79375313 5.54237437 1.09066781 10.7953875 3.0716775 21.54625875 4.87461844 32.31938813z" fill="#5FB93C" p-id="20568"></path><path d="M824.09891563 780.69299469c-18.85297594-3.42781406-37.72821094-6.96692063-56.62570407-10.238925-5.60914969-0.97937531-7.83500344-3.47233125-8.14662281-9.45987563a841.83991781 841.83991781 0 0 0-21.67980938-151.04639437c-0.9126-3.82846781-1.91423344-7.99081312 4.318155-7.1672475 36.54850875 4.71880875 73.14153469 9.25954875 108.26549719 21.30141469-1.17970219 3.0716775-2.22585281 6.27690562-3.56136562 9.2150325a135.30961312 135.30961312 0 0 0-14.60159625 65.01717c0.77904844 23.83888688 2.71554094 47.70003281 0.17806781 71.56117875z" fill="#28A641" p-id="20569"></path><path d="M768.74194719 205.46576563a24.12824812 24.12824812 0 0 1-17.80682438-7.36757344 181.206705 181.206705 0 0 0-28.55769656-20.85624375c-5.43108188-3.405555-11.97508969-7.21176375-16.87196625-1.20196125-4.45170656 5.54237437 2.22585281 9.8827875 5.09720344 14.20094344a96.5129925 96.5129925 0 0 0 7.055955 7.99081312c-20.41107375-2.60424844-38.72984437-5.1194625-57.09313407-7.23402281a610.01731312 610.01731312 0 0 0-94.97715281-3.78395063c-7.1672475 0.28936125-12.24219187-1.09066781-17.20584562-6.87788625a668.646285 668.646285 0 0 0-60.34287844-63.19197094c-1.26873656-1.11292688-3.16071188-2.22585281-2.22585281-4.45170656 2.55973125-0.31161938 5.09720344-0.77904844 7.67919281-0.86808281 66.77559469-2.22585281 130.74661406 10.23892406 191.200785 39.13049906 30.27160312 14.62385531 59.20769344 31.38452906 84.04821469 54.51114281zM634.16686625 909.36956469c-20.83398563-23.0820975-38.26241531-48.67940813-55.49051906-74.43252938-3.13845281-4.69654969-2.11456031-6.98917875 3.11619469-8.90341219 34.61201625-12.10864125 69.84727125-21.30141469 106.50707343-24.26179968 8.36920781 23.77211156 17.56198125 47.07679406 36.23688844 65.08394625-27.93445687 18.91975219-58.71800625 31.65163219-90.3696375 42.513795z" fill="#0379C0" p-id="20570"></path><path d="M237.20821625 608.74583844c12.01960688-1.09066781 23.03758031-9.30406594 35.8139775-5.14172063-0.9126 4.18460438 1.51357969 6.32142281 4.22912062 9.19277344 21.52399969 22.74821906 49.10232 36.48173344 75.67900688 51.70656938-27.19992562 18.89749313-55.31245031 36.52624969-80.77621031 57.87218156-5.09720344 4.27363781-7.14498844 0.33387844-9.326325-3.02716031a468.65337937 468.65337937 0 0 1-50.54912438-102.85667438zM139.82714187 344.33674344c11.28507562-17.56198125 19.40943938-36.92690344 31.74066563-53.95468032C193.55923625 260.15497813 217.17553813 231.59728156 246.66809281 208.33711625l55.26793313-6.85562719c4.62977438 13.35511875 0.69001406 27.80090625 6.05432062 41.20054125 2.82683344 7.07821312-4.89687656 8.05758844-9.14825625 9.94956375-37.3943325 16.7161575-72.65184656 37.37207437-107.1970875 59.16317625-15.8035575 9.97182187-30.04901719 22.36982438-45.05126812 33.61038282-2.47069687 1.84745813-5.76495938 7.34531531-6.76659281-1.06840969z" fill="#28A641" p-id="20571"></path><path d="M465.11331969 926.64218469c-8.59179281-4.45170656-15.38064562-11.24055844-23.05983844-16.89422532-3.85072594-2.84909156-4.18460438-5.43108188 0-8.61405093a486.92763375 486.92763375 0 0 1 95.55587625-57.56056313c4.45170656-2.07004312 6.45497437-0.35613656 8.90341219 3.13845375 16.78293281 24.23954063 33.7661925 48.36778875 50.704935 72.518295a437.44691906 437.44691906 0 0 1-132.104385 7.41209063zM555.06004531 324.459875c-9.8827875 1.42454625-11.97508969-7.92403688-16.11517593-12.97672406-22.48111688-27.57832031-51.01655438-46.27548656-83.24690813-60.09803438-4.45170656-1.89197531-10.48376813-1.98100969-11.50766062-8.59179375l8.45824218-6.94466156a3.67265812 3.67265812 0 0 0 4.14008625-2.22585281c24.70696969-6.67755937 50.03717906-9.326325 75.3673875-12.15315844a8.65856906 8.65856906 0 0 1 8.5250175 3.73943344c20.52236625 25.75312125 40.28794219 51.99592969 55.00083188 81.64429312zM201.55004938 787.39281219c-41.35635188-46.25322844-69.42435937-99.67370344-85.62857063-159.43786031 14.26771875-2.47069687 22.6146675-14.31223594 33.89974313-21.50174157 12.88768969-8.21339813 12.68736281-8.61405187 18.09618656 5.20849594 3.04941844 7.83500344 5.89851094 15.75904031 8.90341219 23.63856094a46.96550156 46.96550156 0 0 0-4.02879375 5.18623781c-21.81336094 37.28304 12.21993375 95.711685 57.87218156 99.54015281v-0.11129343l1.98100875 2.22585375c5.69818406 4.78558406 6.21013031 8.68082719-0.44517 13.77803062-11.77476281 8.85889594-20.90076094 20.52236625-30.64999781 31.47356344zM434.93075187 869.10388156c-0.62323875-39.19727344 2.76005813-77.61549937 19.09782001-114.11949094 4.89687656-10.90668 7.03369594-23.05983844 10.41699187-34.63427531 18.875235 29.49255375 37.66143563 59.02962563 56.64796313 88.45540406 2.3816625 3.67265812 2.22585281 5.63140875-1.84745813 7.6124175-29.84869031 14.69063063-56.87054812 34.07781188-84.31531688 52.68594469z" fill="#0379C0" p-id="20572"></path><path d="M681.08785063 770.69891375a177.111135 177.111135 0 0 1 3.58362375-73.45315406c2.53747219-9.99408094 5.18623781-20.03267812 7.12273031-30.1157925 2.73779906-14.13416719 0.69001406-26.88830625-10.61731969-37.50562594a94.66553437 94.66553437 0 0 1-19.74331781-27.77864719c11.97508969-3.11619469 24.2172825-1.15744406 36.30366469-1.78068281 5.18623781-0.26710219 5.74270125 3.27200437 6.67756031 7.03369594 5.72044219 24.48438469 11.12926594 48.79070062 15.58097156 73.56444656 4.45170656 25.46376 7.45660781 50.99429531 10.3502175 76.61386594 0.95711719 8.48050031-1.17970219 11.73024563-10.43925187 11.50766062-13.02124125-0.28936125-25.84215469 1.20196031-38.81887875 1.91423344z" fill="#28A641" p-id="20573"></path><path d="M832.22327938 769.87534813c2.53747219-23.86114594 0.60098063-47.72229188-0.17806782-71.56117876a135.30961312 135.30961312 0 0 1 14.62385438-65.01716999c1.44680437-2.93812594 2.3816625-6.143355 3.56136562-9.2150325 12.28670906 1.20196031 23.32694062 6.67755937 34.87911844 10.3502175 4.27363781 1.38002906 5.38656469 4.318155 5.43108188 8.45824218 0 9.21503156 0.46742906 18.40780594 0.73453125 27.64509563-3.65039906 2.42617969-4.27363781 6.67755937-5.87625188 10.23892406-14.13416719 31.8297-30.73903219 62.21259562-53.17563188 89.10090188z" fill="#0379C0" p-id="20574"></path><path d="M555.06004531 324.459875l40.55504438-17.65101563c10.66183688 16.84970812 18.38554687 35.1239625 26.71023843 53.17563188 3.02716031 6.67755937-0.15580969 7.52338406-5.3420475 7.96855406-35.96978719 3.00490219-71.38311 9.54891-106.72965843 16.58260594-1.33551188-26.24280844 11.35185094-43.49317031 34.47846468-54.19952344 3.53910656-1.66939031 6.87788625-3.91750125 10.32795844-5.87625281z" fill="#5FB93C" p-id="20575"></path><path d="M335.96932063 889.203335a366.13058344 366.13058344 0 0 1-119.77315782-86.09599969c15.04676719-2.44843875 25.97570625-11.84153906 36.28140657-21.96917062 5.58689156-5.52011625 9.17051531-6.56626688 14.51256187 0.75679031 15.20257688 20.94527812 34.38943125 38.44048406 51.32817375 57.87218156 3.16071188 17.45068875 11.84153906 32.92036781 17.65101563 49.43619844z" fill="#0379C0" p-id="20576"></path><path d="M774.64045812 411.44621563c-16.137435 28.93609125-37.68369375 53.3091825-61.65613218 75.81255843-2.07004312 1.95875062-4.74106688 1.75842375-7.32305625 1.84745813-9.63794438-27.42251063-17.80682531-55.40148469-29.11415907-82.20075656-3.58362375-8.45824219 1.78068281-7.41209063 6.67755938-7.23402282 30.87258281 1.135185 61.54483969 3.02716031 91.41578812 11.77476282z" fill="#5FB93C" p-id="20577"></path><path d="M323.59357719 199.83435781c33.0761775-0.69001406 63.81520969-13.48867031 96.02330437-18.63039093 19.8991275-3.16071188 33.877485 2.84909156 42.89219063 19.07556093-43.18155094 10.14989062-85.91793094 21.83561906-127.16299031 38.39596688-5.52011625 2.22585281-7.03369594 0.55646344-7.74596907-4.763325-1.51357969-11.32959281-4.318155-22.503375-4.00653562-34.07781188z" fill="#28A641" p-id="20578"></path><path d="M352.95258031 664.50346063c-26.598945-15.22483594-54.17726531-28.93609125-75.67900687-51.70656938-2.71554094-2.87135063-5.14172062-5.00817-4.22912157-9.19277344 16.89422531-1.64713125 32.69778281 4.14008719 48.79070157 7.43434969 29.13641812 5.94302812 58.25057719 12.26445094 86.4966525 21.79110281z" fill="#5FB93C" p-id="20579"></path><path d="M686.07376156 220.35672312c-25.33020844 11.75250469-40.51052719 33.38779687-54.77824594 56.02472438-2.33714625 3.71717437-5.18623781 7.12273031-7.81274437 10.684095-13.62222094-21.32367281-26.82153-43.15929281-41.93507344-63.61488281-4.45170656-6.03206156-1.86971625-7.36757438 4.18460438-7.45660782 33.52134844-0.46742906 67.02043781-0.20032688 100.34145937 4.36267125z" fill="#0379C0" p-id="20580"></path><path d="M840.97088187 282.59157781c30.0045 39.62018625 50.28202219 83.91466312 63.25874719 131.70373032 0.95711719 3.49458937 1.33551188 7.1672475 1.98100875 10.77312937-7.83500344-3.9842775-15.58097156-7.99081312-23.50500937-11.93057344a13.84480687 13.84480687 0 0 1-6.87788625-8.21339812A781.98672656 781.98672656 0 0 0 829.84161687 302.71329031c6.49949156-1.33551188 6.67755937-6.45497437 7.05595407-11.596695 0.17806781-3.33877969-1.35777-7.56790031 4.07331094-8.5250175zM101.98763844 508.78277375a321.8138475 321.8138475 0 0 1 12.86543062-91.10416875 962.32534875 962.32534875 0 0 0 32.78681719 135.77704219c1.44680437 4.45170656 2.64876562 8.70308625-3.09393656 11.129265-13.91158219-18.78620062-25.66408687-39.26404969-42.55831125-55.80213844zM230.64194938 740.02665781c-45.696765-3.78395063-79.73005969-62.32388812-57.87218157-99.54015281a46.96550156 46.96550156 0 0 1 3.9842775-5.25301406 823.16500969 823.16500969 0 0 0 53.88790407 104.79316687z" fill="#28A641" p-id="20581"></path><path d="M547.80376438 580.010075a171.68005313 171.68005313 0 0 1 26.55442781-46.07516063c16.76067375-1.51357969 31.9409925 3.67265812 46.56484781 11.12926594 6.27690562 7.18950562 14.95773281 12.28670906 18.7639425 21.61303406-30.87258281 2.80457531-61.36677094 7.99081312-91.88321812 13.33286063z" fill="#0379C0" p-id="20582"></path><path d="M639.6869825 566.6994725c-3.80620875-9.326325-12.48703594-14.42352844-18.7639425-21.61303313l56.51441156-32.27487093c6.45497437 14.93547469 9.70471969 30.89484188 14.62385531 46.32000375 1.80294094 5.63140875-0.53420438 7.21176375-5.85399375 7.18950562-15.51419625 0.04451719-31.00613438 0.26710219-46.52033062 0.37839469zM733.1282975 862.80471687l-8.61405187 4.14008719c-18.65264906-18.00715219-27.8454225-41.31183469-36.21463032-65.08394625a207.56080594 207.56080594 0 0 1 38.01757125-3.85072593c4.05105281-0.1112925 6.23238844 1.35777 6.23238938 5.60914968 0.02225813 19.72105875 3.31652156 39.4421175 0.57872156 59.18543532zM787.32782188 382.82174469c4.58525719-0.64549781 6.2546475-3.27200437 7.67919281-7.81274438 3.58362375-11.4854025 8.28017344-22.65918469 12.66510469-33.89974406 1.62487312-4.18460438 3.49458937-8.32469063 9.25954875-7.54564125 13.02124125 20.233005 21.50174156 42.58057031 31.51808062 66.64204313z" fill="#28A641" p-id="20583"></path><path d="M101.98763844 508.78277375c16.89422531 16.53808875 28.64673 37.01593781 42.55831125 55.84665563a269.01661125 269.01661125 0 0 1-36.17011313 25.44150187c-7.1672475-26.7102375-7.45660781-53.93242125-6.38819812-81.2881575zM161.92986312 471.85587031c6.52174969-7.94629594 8.16888094-19.320405 17.62875657-25.21891593 1.86971625 24.12824812 5.96528625 47.81132531 15.11354344 70.33695937a23.48275031 23.48275031 0 0 1 2.22585281 12.8431725c-14.95773281 12.6205875-15.20257688 12.68736281-20.76720938-5.09720344-5.38656469-17.42842969-11.596695-34.65653344-14.20094343-52.8640125z" fill="#0379C0" p-id="20584"></path><path d="M335.96932063 889.203335c-5.80947656-16.51583062-14.49030375-31.98550969-17.65101563-49.43619844q26.42087719 24.35083313 52.81949531 48.61263282c4.89687656 4.45170656 10.03859813 8.70308625 15.22483594 12.8431725 3.93976031 3.11619469 4.22912063 5.72044219-0.40065375 8.25791531-17.07229406-5.76495938-34.32265594-11.10700687-49.99266187-20.27752219zM912.48754344 449.44152969c1.8252 17.80682531 5.76495938 35.3465475 4.785585 53.420475l-13.71125532 19.2091125c-4.78558406-26.7102375-8.5250175-53.42047594-16.15969406-81.80010282z" fill="#28A641" p-id="20585"></path><path d="M840.97088187 282.59157781c-5.36430563 0.9126-3.82846781 5.18623781-4.05105281 8.5250175-0.31161938 5.14172062-0.55646344 10.26118312-7.05595406 11.596695L785.32455313 236.80577844l30.73903218 10.61731969c6.143355 13.28834344 18.96426844 21.76884375 24.90729656 35.16847968zM399.69549594 259.26463625c-21.145605 9.83827125-40.06535625 23.03758031-58.20605907 37.66143563-3.96201844-6.05432062-3.51684844-13.35511875-5.58689156-20.03267813-1.33551188-4.25137969 1.135185-6.143355 4.45170563-7.41209156 17.20584469-6.45497437 34.10007-13.82254781 51.99592969-18.31877063l2.47069687-1.17970218 4.45170656-1.06840969c0.222585 3.47233125 0.33387844 6.92240344 0.42291188 10.35021656z" fill="#5FB93C" p-id="20586"></path><path d="M806.09176344 801.1040675a330.40564125 330.40564125 0 0 1-45.76354032 41.33409281c0.26710219-12.75413813 0.64549781-25.50827719 0.69001407-38.26241531 0-5.89851094 3.67265812-6.43271531 8.03533031-6.09883781 12.35348531 0.95711719 24.70696969 2.00326781 37.03819594 3.02716031z" fill="#28A641" p-id="20587"></path><path d="M301.91376781 201.48148906L246.66809281 208.33711625a286.31149031 286.31149031 0 0 1 52.30754813-37.83950344c1.22421937 10.3502175 3.47233125 20.52236625 2.93812687 30.98387625zM903.56187312 522.00434187l13.71125532-19.20911249c2.71554094 34.01103562-0.77904844 67.51012594-7.87952063 100.71985499q-2.93812594-40.75537125-5.83173468-81.5107425zM237.20821625 608.74583844l-24.90729656 7.72371093c-6.67755937-11.12926594-9.19277344-23.83888688-14.22320157-35.61365062-2.47069687-5.78721844 2.09230219-7.70145187 5.83173563-9.97182187 12.10864125 7.99081312 20.03267812 20.36655656 30.694515 29.73739781a8.68082719 8.68082719 0 0 1 2.6042475 8.12436375zM863.518775 595.88040781l21.72432656-39.84277125c2.89360875 16.31550375 3.33877969 32.83133344 4.58525719 50.25976407-9.57116812-3.38329688-18.45232219-5.52011625-26.30958375-10.41699282z" fill="#0379C0" p-id="20588"></path><path d="M399.69549594 259.26463625c0-3.42781406-0.20032688-6.85562812-0.28936032-10.28344125 17.31713719-6.12109594 34.56749906-12.48703594 53.24240719-13.35511875l-8.45824219 6.94466156z" fill="#28A641" p-id="20589"></path><path d="M456.72185375 233.57829125a3.67265812 3.67265812 0 0 1-4.14008719 2.22585281c0.57872156-2.27037 2.42617969-2.1590775 4.14008719-2.22585281zM232.53392469 742.07444187l-1.98100875-2.22585281zM394.88765375 250.16089719l-2.47069781 1.17970218z" fill="#28A641" p-id="20590"></path></svg>