<?xml version="1.0" standalone="no"?><!DOCTYPE svg PUBLIC "-//W3C//DTD SVG 1.1//EN" "http://www.w3.org/Graphics/SVG/1.1/DTD/svg11.dtd"><svg t="1723126844594" class="icon" viewBox="0 0 1024 1024" version="1.1" xmlns="http://www.w3.org/2000/svg" p-id="4420" xmlns:xlink="http://www.w3.org/1999/xlink" width="18" height="18"><path d="M729.6 584c-17.6 0-35.2-1.6-52.8-4.8-57.6-10.4-110.4-38.4-152-80-41.6-41.6-69.6-94.4-80-152-17.6-94.4 12.8-190.4 80-257.6 72-72 178.4-100.8 277.6-76 5.6 1.6 9.6 5.6 11.2 11.2 1.6 5.6 0 11.2-4 15.2L674.4 175.2l48 136 126.4 39.2 135.2-136c4-4 10.4-5.6 15.2-4 5.6 1.6 9.6 5.6 11.2 11.2 25.6 99.2-4 205.6-76 277.6-54.4 54.4-128 84.8-204.8 84.8z m0.8-548c-68 0-134.4 26.4-183.2 75.2-60 60-86.4 145.6-71.2 229.6 9.6 51.2 34.4 98.4 71.2 135.2 36.8 36.8 84 61.6 135.2 71.2 84 15.2 169.6-11.2 229.6-71.2 57.6-57.6 84-138.4 72.8-218.4L864 378.4c-4 4-10.4 5.6-16 4l-143.2-44c-4.8-1.6-8.8-4.8-10.4-9.6L640.8 176c-2.4-5.6-0.8-12 4-16.8L765.6 38.4c-11.2-1.6-23.2-2.4-35.2-2.4z" fill="#303C42" p-id="4421"></path><path d="M208 1020c-54.4 0-105.6-20.8-144-60-40-40-61.6-94.4-60-151.2 2.4-56.8 26.4-108.8 69.6-146.4l376.8-330.4c4-4 10.4-4.8 16-3.2 5.6 1.6 9.6 6.4 10.4 12 9.6 51.2 34.4 98.4 71.2 135.2 36.8 36.8 84 61.6 135.2 71.2 5.6 0.8 10.4 4.8 12 10.4 1.6 5.6 0.8 11.2-3.2 16l-330.4 376.8c-37.6 43.2-89.6 67.2-147.2 69.6H208z m243.2-646.4L94.4 686.4c-36 32-56.8 76-58.4 124-1.6 48 16 93.6 50.4 127.2 34.4 34.4 79.2 52 127.2 50.4 48-1.6 92-22.4 124-58.4l312.8-356C603.2 560 560 535.2 524.8 500c-35.2-36-60-79.2-73.6-126.4z" fill="#303C42" p-id="4422"></path><path d="M197.6 901.6c-20 0-39.2-8-53.6-22.4-14.4-14.4-22.4-32.8-22.4-53.6 0-20 8-39.2 22.4-53.6 14.4-14.4 32.8-22.4 53.6-22.4 20 0 39.2 8 53.6 22.4 14.4 14.4 22.4 32.8 22.4 53.6 0 20-8 39.2-22.4 53.6-14.4 14.4-33.6 22.4-53.6 22.4z m0-134.4c-16 0-30.4 6.4-41.6 17.6-11.2 11.2-17.6 26.4-17.6 41.6 0 16 6.4 30.4 17.6 41.6 11.2 11.2 26.4 17.6 41.6 17.6 16 0 30.4-6.4 41.6-17.6 11.2-11.2 17.6-26.4 17.6-41.6 0-16-6.4-30.4-17.6-41.6-11.2-11.2-25.6-17.6-41.6-17.6zM285.6 767.2c-2.4 0-4-0.8-5.6-2.4-3.2-3.2-3.2-8 0-11.2L489.6 544c3.2-3.2 8-3.2 11.2 0 3.2 3.2 3.2 8 0 11.2L291.2 764.8c-1.6 1.6-4 2.4-5.6 2.4z" fill="#303C42" p-id="4423"></path></svg>