<?xml version="1.0" standalone="no"?><!DOCTYPE svg PUBLIC "-//W3C//DTD SVG 1.1//EN" "http://www.w3.org/Graphics/SVG/1.1/DTD/svg11.dtd"><svg t="1723302461488" class="icon" viewBox="0 0 1034 1024" version="1.1" xmlns="http://www.w3.org/2000/svg" p-id="4288" xmlns:xlink="http://www.w3.org/1999/xlink" width="18" height="18"><path d="M415.764788 955.781122h-55.972932a77.000117 77.000117 0 0 1-76.820907-76.28328v-17.920896H391.87026A416.003734 416.003734 0 0 0 415.705052 955.781122z m-27.478707-163.259363H75.745654A75.80539 75.80539 0 0 1 0 716.835842V75.745654A75.865127 75.865127 0 0 1 75.745654 0h555.906195a75.865127 75.865127 0 0 1 75.745654 75.745654V400.233345A419.110022 419.110022 0 0 0 388.286081 792.462023z m-238.347917-354.236378a34.945747 34.945747 0 1 0 0 69.891495h159.973865a34.945747 34.945747 0 1 0 0-69.891495z m0-158.540194a34.945747 34.945747 0 0 0 0 69.891495h330.939213a34.945747 34.945747 0 0 0 0-69.891495z m0-167.859059a34.945747 34.945747 0 0 0 0 69.891494h330.939213a34.945747 34.945747 0 1 0 0-69.891494zM896.044802 397.903629a421.021584 421.021584 0 0 0-89.60448-9.617548c-11.947264 0-23.894528 0.477891-35.841792 1.493408V163.199627h47.789056A76.820908 76.820908 0 0 1 896.044802 239.482907V397.843892zM794.254113 757.576012c9.677284-2.688134 19.832458-5.973632 30.405787-9.259129v52.926379a96.115739 96.115739 0 0 1-43.66725 42.293315 120.189476 120.189476 0 0 1-51.612181 13.261463 48.505892 48.505892 0 0 1-35.841792-11.947264 38.111772 38.111772 0 0 1-11.947264-27.777389 45.996967 45.996967 0 0 1 11.947264-31.719986 87.692918 87.692918 0 0 1 51.612181-18.518259q34.467857-5.256796 49.103255-9.25913z" fill="#333333" p-id="4289"></path><path d="M761.100455 477.890561a273.054719 273.054719 0 1 0 273.054719 273.05472A273.054719 273.054719 0 0 0 761.100455 477.890561z m74.073037 421.26053a32.257613 32.257613 0 0 1-7.885194-14.575662 82.077704 82.077704 0 0 1-2.688135-22.520593 115.768988 115.768988 0 0 1-44.981449 31.779722 148.146074 148.146074 0 0 1-55.554777 10.573329 117.800023 117.800023 0 0 1-71.444639-21.146657 70.548594 70.548594 0 0 1-29.091588-60.871311 81.301132 81.301132 0 0 1 26.46319-63.499708 153.761288 153.761288 0 0 1 82.077703-31.719986 489.837825 489.837825 0 0 0 64.754171-13.261463q27.777389-7.944931 27.777389-21.146657a52.687434 52.687434 0 0 0-11.947264-31.719986 62.842609 62.842609 0 0 0-51.552444-15.889861 72.878311 72.878311 0 0 0-46.295648 11.947264 59.73632 59.73632 0 0 0-19.892195 33.093921h-58.183176a96.354684 96.354684 0 0 1 38.410454-67.502042 138.409054 138.409054 0 0 1 86.020301-25.148991 126.282581 126.282581 0 0 1 87.3345 26.46319 95.159958 95.159958 0 0 1 29.031852 74.073037v145.517676a77.119589 77.119589 0 0 0 5.316532 29.091588 103.582779 103.582779 0 0 0 15.889862 26.46319h-63.559445z" fill="#333333" p-id="4290"></path></svg>